ffmpeg started on 2016-12-09 at 04:58:32
Report written to "Output/x264/results/ffmpeg/crowd_run_2160p50placebo1000k.log"
Command line:
Tools/ffmpeg/ffmpeg -benchmark -y -i Input/y4m/crowd_run_2160p50.y4m -c:v libx264 -preset placebo -b:v 1000k -an Output/x264/encoded/crowd_run_2160p50placebo1000k.mkv
ffmpeg version N-82227-gdb23fde Copyright (c) 2000-2016 the FFmpeg developers
  built with gcc 5.4.0 (Ubuntu 5.4.0-6ubuntu1~16.04.2) 20160609
  configuration: --prefix=/home/jaroslav/ffmpeg_build --pkg-config-flags=--static --extra-cflags=-I/home/jaroslav/ffmpeg_build/include --extra-ldflags=-L/home/jaroslav/ffmpeg_build/lib --bindir=/home/jaroslav/bin --enable-gpl --enable-libass --enable-libfdk-aac --enable-libfreetype --enable-libmp3lame --enable-libopus --enable-libtheora --enable-libvorbis --enable-libvpx --enable-libx264 --enable-libx265 --enable-nvenc --enable-libmfx --enable-libxvid --enable-libgsm --enable-libopencore-amrnb --enable-version3 --enable-nonfree
  libavutil      55. 35.100 / 55. 35.100
  libavcodec     57. 66.101 / 57. 66.101
  libavformat    57. 57.100 / 57. 57.100
  libavdevice    57.  2.100 / 57.  2.100
  libavfilter     6. 66.100 /  6. 66.100
  libswscale      4.  3.100 /  4.  3.100
  libswresample   2.  4.100 /  2.  4.100
  libpostproc    54.  2.100 / 54.  2.100
Input #0, yuv4mpegpipe, from 'Input/y4m/crowd_run_2160p50.y4m':
  Duration: 00:00:10.00, start: 0.000000, bitrate: 4976642 kb/s
    Stream #0:0: Video: rawvideo (I420 / 0x30323449), yuv420p(progressive), 3840x2160, SAR 1:1 DAR 16:9, 50 fps, 50 tbr, 50 tbn, 50 tbc
[libx264 @ 0x3ce31c0] using SAR=1/1
[libx264 @ 0x3ce31c0] DPB size (16 frames, 518400 mbs) > level limit (5 frames, 184320 mbs)
[libx264 @ 0x3ce31c0] using cpu capabilities: MMX2 SSE2Fast SSSE3 SSE4.2 AVX FMA3 AVX2 LZCNT BMI2
[libx264 @ 0x3ce31c0] profile High, level 5.2
[libx264 @ 0x3ce31c0] 264 - core 148 - H.264/MPEG-4 AVC codec - Copyleft 2003-2016 - http://www.videolan.org/x264.html - options: cabac=1 ref=16 deblock=1:0:0 analyse=0x3:0x133 me=tesa subme=11 psy=1 psy_rd=1.00:0.00 mixed_ref=1 me_range=24 chroma_me=1 trellis=2 8x8dct=1 cqm=0 deadzone=21,11 fast_pskip=0 chroma_qp_offset=-2 threads=6 lookahead_threads=1 sliced_threads=0 nr=0 decimate=1 interlaced=0 bluray_compat=0 constrained_intra=0 bframes=16 b_pyramid=2 b_adapt=2 b_bias=0 direct=3 weightb=1 open_gop=0 weightp=2 keyint=250 keyint_min=25 scenecut=40 intra_refresh=0 rc_lookahead=60 rc=abr mbtree=1 bitrate=1000 ratetol=1.0 qcomp=0.60 qpmin=0 qpmax=69 qpstep=4 ip_ratio=1.40 aq=1:1.00
Output #0, matroska, to 'Output/x264/encoded/crowd_run_2160p50placebo1000k.mkv':
  Metadata:
    encoder         : Lavf57.57.100
    Stream #0:0: Video: h264 (libx264) (H264 / 0x34363248), yuv420p, 3840x2160 [SAR 1:1 DAR 16:9], q=-1--1, 1000 kb/s, 50 fps, 1k tbn, 50 tbc
    Metadata:
      encoder         : Lavc57.66.101 libx264
    Side data:
      cpb: bitrate max/min/avg: 0/0/1000000 buffer size: 0 vbv_delay: -1
Stream mapping:
  Stream #0:0 -> #0:0 (rawvideo (native) -> h264 (libx264))
Press [q] to stop, [?] for help
frame=    7 fps=0.0 q=0.0 size=       0kB time=00:00:00.00 bitrate=N/A speed=   0x    frame=   12 fps=8.7 q=0.0 size=       0kB time=00:00:00.00 bitrate=N/A speed=   0x    frame=   27 fps= 14 q=0.0 size=       0kB time=00:00:00.00 bitrate=N/A speed=   0x    frame=   32 fps= 13 q=0.0 size=       0kB time=00:00:00.00 bitrate=N/A speed=   0x    frame=   41 fps= 14 q=0.0 size=       0kB time=00:00:00.00 bitrate=N/A speed=   0x    frame=   50 fps= 14 q=0.0 size=       0kB time=00:00:00.00 bitrate=N/A speed=   0x    frame=   54 fps= 13 q=0.0 size=       0kB time=00:00:00.00 bitrate=N/A speed=   0x    frame=   63 fps= 14 q=0.0 size=       0kB time=00:00:00.00 bitrate=N/A speed=   0x    frame=   72 fps= 14 q=0.0 size=       0kB time=00:00:00.00 bitrate=N/A speed=   0x    frame=   81 fps= 14 q=0.0 size=       0kB time=00:00:00.00 bitrate=N/A speed=   0x    frame=   84 fps=3.2 q=0.0 size=       0kB time=00:00:00.00 bitrate=N/A speed=   0x    frame=   89 fps=3.2 q=62.0 size=       1kB time=-00:00:00.01 bitrate=N/A speed=N/A    frame=   90 fps=2.7 q=57.0 size=       1kB time=00:00:00.00 bitrate=5888.0kbits/s speed=3.01e-05x    frame=   95 fps=2.4 q=65.0 size=       1kB time=00:00:00.10 bitrate=  58.3kbits/s speed=0.00258x    frame=  100 fps=2.2 q=69.0 size=       1kB time=00:00:00.20 bitrate=  29.3kbits/s speed=0.00451x    frame=  105 fps=2.1 q=69.0 size=       1kB time=00:00:00.30 bitrate=  19.6kbits/s speed=0.00614x    frame=  106 fps=2.1 q=69.0 size=       1kB time=00:00:00.32 bitrate=  18.3kbits/s speed=0.00631x    frame=  110 fps=2.0 q=69.0 size=       1kB time=00:00:00.40 bitrate=  14.7kbits/s speed=0.00726x    frame=  111 fps=2.0 q=69.0 size=       1kB time=00:00:00.42 bitrate=  14.0kbits/s speed=0.00751x    frame=  113 fps=2.0 q=69.0 size=       1kB time=00:00:00.46 bitrate=  12.8kbits/s speed=0.00814x    frame=  114 fps=1.9 q=69.0 size=       1kB time=00:00:00.48 bitrate=  12.2kbits/s speed=0.00809x    frame=  115 fps=1.8 q=69.0 size=       1kB time=00:00:00.50 bitrate=  11.8kbits/s speed=0.00802x    frame=  117 fps=1.8 q=69.0 size=       1kB time=00:00:00.54 bitrate=  10.9kbits/s speed=0.00854x    frame=  119 fps=1.7 q=69.0 size=       1kB time=00:00:00.58 bitrate=  10.1kbits/s speed=0.00841x    frame=  121 fps=1.7 q=69.0 size=       1kB time=00:00:00.62 bitrate=   9.5kbits/s speed=0.00888x    frame=  123 fps=1.6 q=69.0 size=       1kB time=00:00:00.66 bitrate=   8.9kbits/s speed=0.00883x    frame=  125 fps=1.7 q=69.0 size=       1kB time=00:00:00.70 bitrate=   8.4kbits/s speed=0.00928x    frame=  127 fps=1.5 q=69.0 size=       1kB time=00:00:00.74 bitrate=   7.9kbits/s speed=0.00904x    frame=  129 fps=1.6 q=69.0 size=       1kB time=00:00:00.78 bitrate=   7.5kbits/s speed=0.00943x    frame=  132 fps=1.5 q=69.0 size=       1kB time=00:00:00.84 bitrate=   7.0kbits/s speed=0.00962x    frame=  133 fps=1.5 q=69.0 size=       1kB time=00:00:00.86 bitrate=   6.8kbits/s speed=0.00968x    frame=  134 fps=1.5 q=69.0 size=       1kB time=00:00:00.88 bitrate=   6.7kbits/s speed=0.00977x    frame=  137 fps=1.4 q=69.0 size=       1kB time=00:00:00.94 bitrate=   6.3kbits/s speed=0.00984x    frame=  139 fps=1.4 q=69.0 size=       1kB time=00:00:00.98 bitrate=   6.0kbits/s speed=0.0102x    frame=  142 fps=1.4 q=69.0 size=       1kB time=00:00:01.04 bitrate=   5.7kbits/s speed=0.0102x    frame=  144 fps=1.4 q=69.0 size=       1kB time=00:00:01.08 bitrate=   5.4kbits/s speed=0.0105x    frame=  147 fps=1.4 q=69.0 size=       1kB time=00:00:01.14 bitrate=   5.2kbits/s speed=0.0105x    frame=  149 fps=1.4 q=69.0 size=       1kB time=00:00:01.18 bitrate=   5.0kbits/s speed=0.0109x    frame=  151 fps=1.3 q=69.0 size=       1kB time=00:00:01.22 bitrate=   4.8kbits/s speed=0.0108x    frame=  153 fps=1.3 q=68.0 size=       1kB time=00:00:01.26 bitrate=   4.7kbits/s speed=0.0111x    frame=  156 fps=1.3 q=68.0 size=       1kB time=00:00:01.32 bitrate=   4.5kbits/s speed=0.0111x    frame=  158 fps=1.3 q=68.0 size=       1kB time=00:00:01.36 bitrate=   4.3kbits/s speed=0.0113x    frame=  160 fps=1.3 q=68.0 size=       1kB time=00:00:01.40 bitrate=   4.2kbits/s speed=0.0112x    frame=  162 fps=1.3 q=68.0 size=       1kB time=00:00:01.44 bitrate=   4.1kbits/s speed=0.0114x    frame=  165 fps=1.3 q=68.0 size=       1kB time=00:00:01.50 bitrate=   3.9kbits/s speed=0.0116x    frame=  166 fps=1.3 q=67.0 size=       1kB time=00:00:01.52 bitrate=   3.9kbits/s speed=0.0115x    frame=  168 fps=1.3 q=67.0 size=       1kB time=00:00:01.56 bitrate=   3.8kbits/s speed=0.0118x    frame=  169 fps=1.2 q=67.0 size=       1kB time=00:00:01.58 bitrate=   3.7kbits/s speed=0.0116x    frame=  170 fps=1.2 q=67.0 size=       1kB time=00:00:01.60 bitrate=   3.7kbits/s speed=0.0117x    frame=  171 fps=1.2 q=67.0 size=       1kB time=00:00:01.62 bitrate=   3.6kbits/s speed=0.0118x    frame=  173 fps=1.3 q=67.0 size=       1kB time=00:00:01.66 bitrate=   3.5kbits/s speed=0.0121x    frame=  174 fps=1.2 q=67.0 size=       1kB time=00:00:01.68 bitrate=   3.5kbits/s speed=0.0118x    frame=  175 fps=1.2 q=67.0 size=       1kB time=00:00:01.70 bitrate=   3.5kbits/s speed=0.0118x    frame=  176 fps=1.2 q=67.0 size=       1kB time=00:00:01.72 bitrate=   3.4kbits/s speed=0.0119x    frame=  177 fps=1.2 q=66.0 size=       1kB time=00:00:01.74 bitrate=   3.4kbits/s speed=0.012x    frame=  179 fps=1.2 q=67.0 size=       1kB time=00:00:01.78 bitrate=   3.3kbits/s speed=0.0119x    frame=  180 fps=1.2 q=66.0 size=       1kB time=00:00:01.80 bitrate=   3.3kbits/s speed=0.012x    frame=  181 fps=1.2 q=66.0 size=       1kB time=00:00:01.82 bitrate=   3.2kbits/s speed=0.0121x    frame=  182 fps=1.2 q=66.0 size=       1kB time=00:00:01.84 bitrate=   3.2kbits/s speed=0.0121x    frame=  183 fps=1.2 q=66.0 size=       1kB time=00:00:01.86 bitrate=   3.2kbits/s speed=0.012x    frame=  184 fps=1.2 q=66.0 size=       1kB time=00:00:01.88 bitrate=   3.1kbits/s speed=0.0121x    frame=  185 fps=1.2 q=66.0 size=       1kB time=00:00:01.90 bitrate=   3.1kbits/s speed=0.0122x    frame=  186 fps=1.2 q=66.0 size=       1kB time=00:00:01.92 bitrate=   3.1kbits/s speed=0.0122x    frame=  187 fps=1.2 q=66.0 size=       1kB time=00:00:01.94 bitrate=   3.0kbits/s speed=0.012x    frame=  188 fps=1.2 q=66.0 size=       1kB time=00:00:01.96 bitrate=   3.0kbits/s speed=0.012x    frame=  189 fps=1.2 q=66.0 size=       1kB time=00:00:01.98 bitrate=   3.0kbits/s speed=0.0121x    frame=  193 fps=1.1 q=66.0 size=       1kB time=00:00:02.06 bitrate=   2.9kbits/s speed=0.0121x    frame=  194 fps=1.1 q=66.0 size=       1kB time=00:00:02.08 bitrate=   2.8kbits/s speed=0.0121x    frame=  196 fps=1.1 q=65.0 size=       1kB time=00:00:02.12 bitrate=   2.8kbits/s speed=0.0123x    frame=  198 fps=1.1 q=65.0 size=       1kB time=00:00:02.16 bitrate=   2.7kbits/s speed=0.0124x    frame=  199 fps=1.1 q=65.0 size=       1kB time=00:00:02.18 bitrate=   2.7kbits/s speed=0.0122x    frame=  200 fps=1.1 q=65.0 size=       1kB time=00:00:02.20 bitrate=   2.7kbits/s speed=0.0122x    frame=  202 fps=1.1 q=65.0 size=       1kB time=00:00:02.24 bitrate=   2.6kbits/s speed=0.0124x    frame=  204 fps=1.1 q=65.0 size=       1kB time=00:00:02.28 bitrate=   2.6kbits/s speed=0.0125x    frame=  205 fps=1.1 q=65.0 size=       1kB time=00:00:02.30 bitrate=   2.6kbits/s speed=0.0123x    frame=  206 fps=1.1 q=65.0 size=       1kB time=00:00:02.32 bitrate=   2.5kbits/s speed=0.0124x    frame=  208 fps=1.1 q=65.0 size=       1kB time=00:00:02.36 bitrate=   2.5kbits/s speed=0.0123x    frame=  209 fps=1.1 q=65.0 size=       1kB time=00:00:02.38 bitrate=   2.5kbits/s speed=0.0124x    frame=  210 fps=1.1 q=65.0 size=       1kB time=00:00:02.40 bitrate=   2.5kbits/s speed=0.0124x    frame=  211 fps=1.1 q=65.0 size=       1kB time=00:00:02.42 bitrate=   2.4kbits/s speed=0.0125x    frame=  212 fps=1.1 q=65.0 size=       1kB time=00:00:02.44 bitrate=   2.4kbits/s speed=0.0125x    frame=  214 fps=1.1 q=64.0 size=       1kB time=00:00:02.48 bitrate=   2.4kbits/s speed=0.0124x    frame=  215 fps=1.1 q=64.0 size=       1kB time=00:00:02.50 bitrate=   2.4kbits/s speed=0.0124x    frame=  216 fps=1.1 q=64.0 size=       1kB time=00:00:02.52 bitrate=   2.3kbits/s speed=0.0124x    frame=  219 fps=1.1 q=64.0 size=       1kB time=00:00:02.58 bitrate=   2.3kbits/s speed=0.0126x    frame=  220 fps=1.1 q=64.0 size=       1kB time=00:00:02.60 bitrate=   2.3kbits/s speed=0.0124x    frame=  221 fps=1.1 q=64.0 size=       1kB time=00:00:02.62 bitrate=   2.2kbits/s speed=0.0125x    frame=  223 fps=1.1 q=64.0 size=       1kB time=00:00:02.66 bitrate=   2.2kbits/s speed=0.0126x    frame=  225 fps=1.0 q=64.0 size=       1kB time=00:00:02.70 bitrate=   2.2kbits/s speed=0.0125x    frame=  226 fps=1.0 q=64.0 size=       1kB time=00:00:02.72 bitrate=   2.2kbits/s speed=0.0125x    frame=  227 fps=1.0 q=64.0 size=       1kB time=00:00:02.74 bitrate=   2.1kbits/s speed=0.0125x    frame=  229 fps=1.0 q=64.0 size=       1kB time=00:00:02.78 bitrate=   2.1kbits/s speed=0.0125x    frame=  230 fps=1.0 q=64.0 size=       1kB time=00:00:02.80 bitrate=   2.1kbits/s speed=0.0125x    frame=  231 fps=1.0 q=64.0 size=       1kB time=00:00:02.82 bitrate=   2.1kbits/s speed=0.0125x    frame=  232 fps=1.0 q=64.0 size=       1kB time=00:00:02.84 bitrate=   2.1kbits/s speed=0.0125x    frame=  233 fps=1.0 q=64.0 size=       1kB time=00:00:02.86 bitrate=   2.1kbits/s speed=0.0125x    frame=  234 fps=1.0 q=64.0 size=       1kB time=00:00:02.88 bitrate=   2.0kbits/s speed=0.0124x    frame=  235 fps=1.0 q=64.0 size=       1kB time=00:00:02.90 bitrate=   2.0kbits/s speed=0.0125x    frame=  236 fps=1.0 q=64.0 size=       1kB time=00:00:02.92 bitrate=   2.0kbits/s speed=0.0125x    frame=  238 fps=1.0 q=64.0 size=       1kB time=00:00:02.96 bitrate=   2.0kbits/s speed=0.0125x    frame=  239 fps=1.0 q=64.0 size=       1kB time=00:00:02.98 bitrate=   2.0kbits/s speed=0.0125x    frame=  240 fps=1.0 q=64.0 size=       1kB time=00:00:03.00 bitrate=   2.0kbits/s speed=0.0125x    frame=  241 fps=1.0 q=64.0 size=       1kB time=00:00:03.02 bitrate=   1.9kbits/s speed=0.0125x    frame=  242 fps=1.0 q=64.0 size=       1kB time=00:00:03.04 bitrate=   1.9kbits/s speed=0.0126x    frame=  243 fps=1.0 q=64.0 size=       1kB time=00:00:03.06 bitrate=   1.9kbits/s speed=0.0126x    frame=  244 fps=1.0 q=64.0 size=       1kB time=00:00:03.08 bitrate=   1.9kbits/s speed=0.0124x    frame=  245 fps=1.0 q=64.0 size=       1kB time=00:00:03.10 bitrate=   1.9kbits/s speed=0.0124x    frame=  246 fps=1.0 q=64.0 size=       1kB time=00:00:03.12 bitrate=   1.9kbits/s speed=0.0124x    frame=  250 fps=1.0 q=64.0 size=       1kB time=00:00:03.20 bitrate=   1.8kbits/s speed=0.0123x    frame=  251 fps=1.0 q=64.0 size=       1kB time=00:00:03.22 bitrate=   1.8kbits/s speed=0.0124x    frame=  252 fps=1.0 q=64.0 size=       1kB time=00:00:03.24 bitrate=   1.8kbits/s speed=0.0124x    frame=  255 fps=1.0 q=64.0 size=       1kB time=00:00:03.30 bitrate=   1.8kbits/s speed=0.0126x    frame=  256 fps=1.0 q=64.0 size=       1kB time=00:00:03.32 bitrate=   1.8kbits/s speed=0.0124x    frame=  257 fps=1.0 q=64.0 size=       1kB time=00:00:03.34 bitrate=   1.8kbits/s speed=0.0124x    frame=  261 fps=1.0 q=64.0 size=       1kB time=00:00:03.42 bitrate=   1.7kbits/s speed=0.0125x    frame=  262 fps=0.9 q=64.0 size=       1kB time=00:00:03.44 bitrate=   1.7kbits/s speed=0.0124x    frame=  263 fps=0.9 q=64.0 size=       1kB time=00:00:03.46 bitrate=   1.7kbits/s speed=0.0124x    frame=  266 fps=0.9 q=64.0 size=       1kB time=00:00:03.52 bitrate=   1.7kbits/s speed=0.0125x    frame=  267 fps=0.9 q=64.0 size=       1kB time=00:00:03.54 bitrate=   1.7kbits/s speed=0.0125x    frame=  268 fps=0.9 q=64.0 size=       1kB time=00:00:03.56 bitrate=   1.7kbits/s speed=0.0124x    frame=  269 fps=0.9 q=64.0 size=       1kB time=00:00:03.58 bitrate=   1.6kbits/s speed=0.0124x    frame=  271 fps=0.9 q=64.0 size=       1kB time=00:00:03.62 bitrate=   1.6kbits/s speed=0.0124x    frame=  272 fps=0.9 q=64.0 size=       1kB time=00:00:03.64 bitrate=   1.6kbits/s speed=0.0124x    frame=  273 fps=0.9 q=64.0 size=       1kB time=00:00:03.66 bitrate=   1.6kbits/s speed=0.0125x    frame=  274 fps=0.9 q=64.0 size=       1kB time=00:00:03.68 bitrate=   1.6kbits/s speed=0.0124x    frame=  276 fps=0.9 q=64.0 size=       1kB time=00:00:03.72 bitrate=   1.6kbits/s speed=0.0124x    frame=  277 fps=0.9 q=64.0 size=       1kB time=00:00:03.74 bitrate=   1.6kbits/s speed=0.0124x    frame=  278 fps=0.9 q=64.0 size=       1kB time=00:00:03.76 bitrate=   1.6kbits/s speed=0.0124x    frame=  280 fps=0.9 q=64.0 size=       1kB time=00:00:03.80 bitrate=   1.5kbits/s speed=0.0124x    frame=  281 fps=0.9 q=64.0 size=       1kB time=00:00:03.82 bitrate=   1.5kbits/s speed=0.0124x    frame=  282 fps=0.9 q=64.0 size=       1kB time=00:00:03.84 bitrate=   1.5kbits/s speed=0.0124x    frame=  283 fps=0.9 q=64.0 size=       1kB time=00:00:03.86 bitrate=   1.5kbits/s speed=0.0124x    frame=  285 fps=0.9 q=64.0 size=       1kB time=00:00:03.90 bitrate=   1.5kbits/s speed=0.0124x    frame=  286 fps=0.9 q=64.0 size=       1kB time=00:00:03.92 bitrate=   1.5kbits/s speed=0.0123x    frame=  287 fps=0.9 q=64.0 size=       1kB time=00:00:03.94 bitrate=   1.5kbits/s speed=0.0123x    frame=  290 fps=0.9 q=64.0 size=       1kB time=00:00:04.00 bitrate=   1.5kbits/s speed=0.0124x    frame=  291 fps=0.9 q=64.0 size=       1kB time=00:00:04.02 bitrate=   1.5kbits/s speed=0.0123x    frame=  292 fps=0.9 q=64.0 size=       1kB time=00:00:04.04 bitrate=   1.5kbits/s speed=0.0123x    frame=  294 fps=0.9 q=64.0 size=       1kB time=00:00:04.08 bitrate=   1.4kbits/s speed=0.0123x    frame=  295 fps=0.9 q=64.0 size=       1kB time=00:00:04.10 bitrate=   1.4kbits/s speed=0.0123x    frame=  296 fps=0.9 q=64.0 size=       1kB time=00:00:04.12 bitrate=   1.4kbits/s speed=0.0123x    frame=  297 fps=0.9 q=64.0 size=       1kB time=00:00:04.14 bitrate=   1.4kbits/s speed=0.0124x    frame=  298 fps=0.9 q=64.0 size=       1kB time=00:00:04.16 bitrate=   1.4kbits/s speed=0.0124x    frame=  299 fps=0.9 q=64.0 size=       1kB time=00:00:04.18 bitrate=   1.4kbits/s speed=0.0123x    frame=  300 fps=0.9 q=64.0 size=       1kB time=00:00:04.20 bitrate=   1.4kbits/s speed=0.0123x    frame=  301 fps=0.9 q=64.0 size=       1kB time=00:00:04.22 bitrate=   1.4kbits/s speed=0.0123x    frame=  302 fps=0.9 q=64.0 size=       1kB time=00:00:04.24 bitrate=   1.4kbits/s speed=0.0123x    frame=  303 fps=0.9 q=64.0 size=       1kB time=00:00:04.26 bitrate=   1.4kbits/s speed=0.0124x    frame=  304 fps=0.9 q=64.0 size=       1kB time=00:00:04.28 bitrate=   1.4kbits/s speed=0.0123x    frame=  305 fps=0.9 q=64.0 size=       1kB time=00:00:04.30 bitrate=   1.4kbits/s speed=0.0123x    frame=  306 fps=0.9 q=64.0 size=       1kB time=00:00:04.32 bitrate=   1.4kbits/s speed=0.0123x    frame=  308 fps=0.9 q=64.0 size=       1kB time=00:00:04.36 bitrate=   1.4kbits/s speed=0.0122x    frame=  309 fps=0.9 q=64.0 size=       1kB time=00:00:04.38 bitrate=   1.3kbits/s speed=0.0123x    frame=  310 fps=0.9 q=64.0 size=       1kB time=00:00:04.40 bitrate=   1.3kbits/s speed=0.0123x    frame=  312 fps=0.9 q=64.0 size=       1kB time=00:00:04.44 bitrate=   1.3kbits/s speed=0.0123x    frame=  313 fps=0.9 q=64.0 size=       1kB time=00:00:04.46 bitrate=   1.3kbits/s speed=0.0122x    frame=  314 fps=0.9 q=64.0 size=       1kB time=00:00:04.48 bitrate=   1.3kbits/s speed=0.0122x    frame=  315 fps=0.9 q=64.0 size=       1kB time=00:00:04.50 bitrate=   1.3kbits/s speed=0.0123x    frame=  316 fps=0.9 q=64.0 size=       1kB time=00:00:04.52 bitrate=   1.3kbits/s speed=0.0123x    frame=  318 fps=0.9 q=64.0 size=       1kB time=00:00:04.56 bitrate=   1.3kbits/s speed=0.0122x    frame=  319 fps=0.8 q=64.0 size=       1kB time=00:00:04.58 bitrate=   1.3kbits/s speed=0.0122x    frame=  320 fps=0.8 q=64.0 size=       1kB time=00:00:04.60 bitrate=   1.3kbits/s speed=0.0122x    frame=  322 fps=0.9 q=64.0 size=       1kB time=00:00:04.64 bitrate=   1.3kbits/s speed=0.0123x    frame=  323 fps=0.8 q=64.0 size=       1kB time=00:00:04.66 bitrate=   1.3kbits/s speed=0.0122x    frame=  324 fps=0.8 q=64.0 size=       1kB time=00:00:04.68 bitrate=   1.3kbits/s speed=0.0122x    frame=  325 fps=0.8 q=64.0 size=       1kB time=00:00:04.70 bitrate=   1.3kbits/s speed=0.0122x    frame=  326 fps=0.8 q=64.0 size=       1kB time=00:00:04.72 bitrate=   1.2kbits/s speed=0.0122x    frame=  328 fps=0.8 q=64.0 size=       1kB time=00:00:04.76 bitrate=   1.2kbits/s speed=0.0122x    frame=  329 fps=0.8 q=64.0 size=       1kB time=00:00:04.78 bitrate=   1.2kbits/s speed=0.0122x    frame=  330 fps=0.8 q=64.0 size=       1kB time=00:00:04.80 bitrate=   1.2kbits/s speed=0.0122x    frame=  331 fps=0.8 q=64.0 size=       1kB time=00:00:04.82 bitrate=   1.2kbits/s speed=0.0122x    frame=  332 fps=0.8 q=64.0 size=       1kB time=00:00:04.84 bitrate=   1.2kbits/s speed=0.0122x    frame=  333 fps=0.8 q=61.0 size=       1kB time=00:00:04.86 bitrate=   1.2kbits/s speed=0.0122x    frame=  334 fps=0.8 q=65.0 size=       1kB time=00:00:04.88 bitrate=   1.2kbits/s speed=0.0122x    frame=  335 fps=0.8 q=65.0 size=       1kB time=00:00:04.90 bitrate=   1.2kbits/s speed=0.0122x    frame=  336 fps=0.8 q=65.0 size=       1kB time=00:00:04.92 bitrate=   1.2kbits/s speed=0.0122x    frame=  337 fps=0.8 q=65.0 size=       1kB time=00:00:04.94 bitrate=   1.2kbits/s speed=0.0122x    frame=  338 fps=0.8 q=65.0 size=     616kB time=00:00:04.96 bitrate=1017.2kbits/s speed=0.0122x    frame=  344 fps=0.8 q=65.0 size=     616kB time=00:00:05.08 bitrate= 993.1kbits/s speed=0.0124x    frame=  346 fps=0.8 q=65.0 size=     616kB time=00:00:05.12 bitrate= 985.4kbits/s speed=0.0125x    frame=  349 fps=0.8 q=65.0 size=     616kB time=00:00:05.18 bitrate= 974.0kbits/s speed=0.0126x    frame=  350 fps=0.8 q=65.0 size=     616kB time=00:00:05.20 bitrate= 970.2kbits/s speed=0.0126x    frame=  351 fps=0.8 q=65.0 size=     616kB time=00:00:05.22 bitrate= 966.5kbits/s speed=0.0126x    frame=  352 fps=0.8 q=65.0 size=     616kB time=00:00:05.24 bitrate= 962.8kbits/s speed=0.0126x    frame=  354 fps=0.8 q=65.0 size=     616kB time=00:00:05.28 bitrate= 955.5kbits/s speed=0.0126x    frame=  355 fps=0.8 q=65.0 size=     616kB time=00:00:05.30 bitrate= 951.9kbits/s speed=0.0127x    frame=  356 fps=0.8 q=65.0 size=     616kB time=00:00:05.32 bitrate= 948.3kbits/s speed=0.0127x    frame=  358 fps=0.8 q=65.0 size=     616kB time=00:00:05.36 bitrate= 941.3kbits/s speed=0.0126x    frame=  359 fps=0.8 q=65.0 size=     616kB time=00:00:05.38 bitrate= 937.8kbits/s speed=0.0126x    frame=  360 fps=0.8 q=65.0 size=     616kB time=00:00:05.40 bitrate= 934.3kbits/s speed=0.0127x    frame=  362 fps=0.8 q=65.0 size=     616kB time=00:00:05.44 bitrate= 927.4kbits/s speed=0.0127x    frame=  363 fps=0.8 q=65.0 size=     616kB time=00:00:05.46 bitrate= 924.0kbits/s speed=0.0126x    frame=  364 fps=0.8 q=65.0 size=     616kB time=00:00:05.48 bitrate= 920.7kbits/s speed=0.0127x    frame=  365 fps=0.8 q=65.0 size=     616kB time=00:00:05.50 bitrate= 917.3kbits/s speed=0.0127x    frame=  366 fps=0.8 q=65.0 size=     616kB time=00:00:05.52 bitrate= 914.0kbits/s speed=0.0127x    frame=  368 fps=0.8 q=65.0 size=     616kB time=00:00:05.56 bitrate= 907.4kbits/s speed=0.0126x    frame=  369 fps=0.8 q=65.0 size=     616kB time=00:00:05.58 bitrate= 904.2kbits/s speed=0.0126x    frame=  370 fps=0.8 q=65.0 size=     616kB time=00:00:05.60 bitrate= 900.9kbits/s speed=0.0126x    frame=  372 fps=0.8 q=65.0 size=     616kB time=00:00:05.64 bitrate= 894.5kbits/s speed=0.0126x    frame=  373 fps=0.8 q=65.0 size=     616kB time=00:00:05.66 bitrate= 891.4kbits/s speed=0.0126x    frame=  374 fps=0.8 q=65.0 size=     616kB time=00:00:05.68 bitrate= 888.2kbits/s speed=0.0126x    frame=  375 fps=0.8 q=65.0 size=     616kB time=00:00:05.70 bitrate= 885.1kbits/s speed=0.0126x    frame=  378 fps=0.8 q=65.0 size=     616kB time=00:00:05.76 bitrate= 875.9kbits/s speed=0.0126x    frame=  379 fps=0.8 q=65.0 size=     616kB time=00:00:05.78 bitrate= 872.9kbits/s speed=0.0126x    frame=  380 fps=0.8 q=65.0 size=     616kB time=00:00:05.80 bitrate= 869.9kbits/s speed=0.0126x    frame=  381 fps=0.8 q=65.0 size=     616kB time=00:00:05.82 bitrate= 866.9kbits/s speed=0.0126x    frame=  382 fps=0.8 q=65.0 size=     616kB time=00:00:05.84 bitrate= 863.9kbits/s speed=0.0125x    frame=  383 fps=0.8 q=65.0 size=     616kB time=00:00:05.86 bitrate= 861.0kbits/s speed=0.0125x    frame=  384 fps=0.8 q=65.0 size=     616kB time=00:00:05.88 bitrate= 858.0kbits/s speed=0.0125x    frame=  385 fps=0.8 q=65.0 size=     616kB time=00:00:05.90 bitrate= 855.1kbits/s speed=0.0125x    frame=  386 fps=0.8 q=65.0 size=     616kB time=00:00:05.92 bitrate= 852.2kbits/s speed=0.0125x    frame=  387 fps=0.8 q=65.0 size=     616kB time=00:00:05.94 bitrate= 849.4kbits/s speed=0.0125x    frame=  388 fps=0.8 q=65.0 size=     616kB time=00:00:05.96 bitrate= 846.5kbits/s speed=0.0125x    frame=  389 fps=0.8 q=65.0 size=     616kB time=00:00:05.98 bitrate= 843.7kbits/s speed=0.0125x    frame=  391 fps=0.8 q=65.0 size=     616kB time=00:00:06.02 bitrate= 838.1kbits/s speed=0.0124x    frame=  392 fps=0.8 q=65.0 size=     616kB time=00:00:06.04 bitrate= 835.3kbits/s speed=0.0124x    frame=  393 fps=0.8 q=65.0 size=     616kB time=00:00:06.06 bitrate= 832.6kbits/s speed=0.0125x    frame=  395 fps=0.8 q=65.0 size=     616kB time=00:00:06.10 bitrate= 827.1kbits/s speed=0.0125x    frame=  396 fps=0.8 q=65.0 size=     616kB time=00:00:06.12 bitrate= 824.4kbits/s speed=0.0124x    frame=  397 fps=0.8 q=65.0 size=     616kB time=00:00:06.14 bitrate= 821.7kbits/s speed=0.0124x    frame=  398 fps=0.8 q=65.0 size=     616kB time=00:00:06.16 bitrate= 819.0kbits/s speed=0.0124x    frame=  400 fps=0.8 q=65.0 size=     616kB time=00:00:06.20 bitrate= 813.8kbits/s speed=0.0125x    frame=  402 fps=0.8 q=65.0 size=     616kB time=00:00:06.24 bitrate= 808.5kbits/s speed=0.0124x    frame=  403 fps=0.8 q=65.0 size=     616kB time=00:00:06.26 bitrate= 806.0kbits/s speed=0.0124x    frame=  404 fps=0.8 q=65.0 size=     616kB time=00:00:06.28 bitrate= 803.4kbits/s speed=0.0124x    frame=  407 fps=0.8 q=65.0 size=     616kB time=00:00:06.34 bitrate= 795.8kbits/s speed=0.0125x    frame=  408 fps=0.8 q=65.0 size=     616kB time=00:00:06.36 bitrate= 793.3kbits/s speed=0.0123x    frame=  409 fps=0.8 q=65.0 size=     616kB time=00:00:06.38 bitrate= 790.8kbits/s speed=0.0123x    frame=  410 fps=0.8 q=65.0 size=     616kB time=00:00:06.40 bitrate= 788.3kbits/s speed=0.0124x    frame=  412 fps=0.8 q=65.0 size=     616kB time=00:00:06.44 bitrate= 783.4kbits/s speed=0.0124x    frame=  413 fps=0.8 q=65.0 size=     616kB time=00:00:06.46 bitrate= 781.0kbits/s speed=0.0124x    frame=  414 fps=0.8 q=65.0 size=     616kB time=00:00:06.48 bitrate= 778.6kbits/s speed=0.0123x    frame=  415 fps=0.8 q=65.0 size=     616kB time=00:00:06.50 bitrate= 776.2kbits/s speed=0.0123x    frame=  416 fps=0.8 q=65.0 size=     616kB time=00:00:06.52 bitrate= 773.8kbits/s speed=0.0124x    frame=  417 fps=0.8 q=65.0 size=     616kB time=00:00:06.54 bitrate= 771.5kbits/s speed=0.0123x    frame=  418 fps=0.8 q=65.0 size=     616kB time=00:00:06.56 bitrate= 769.1kbits/s speed=0.0123x    frame=  419 fps=0.8 q=65.0 size=     616kB time=00:00:06.58 bitrate= 766.8kbits/s speed=0.0123x    frame=  421 fps=0.8 q=65.0 size=     616kB time=00:00:06.62 bitrate= 762.1kbits/s speed=0.0123x    frame=  422 fps=0.8 q=65.0 size=     616kB time=00:00:06.64 bitrate= 759.8kbits/s speed=0.0123x    frame=  423 fps=0.8 q=65.0 size=     616kB time=00:00:06.66 bitrate= 757.6kbits/s speed=0.0123x    frame=  425 fps=0.8 q=65.0 size=     616kB time=00:00:06.70 bitrate= 753.0kbits/s speed=0.0123x    frame=  426 fps=0.8 q=65.0 size=     616kB time=00:00:06.72 bitrate= 750.8kbits/s speed=0.0123x    frame=  427 fps=0.8 q=65.0 size=     616kB time=00:00:06.74 bitrate= 748.6kbits/s speed=0.0123x    frame=  428 fps=0.8 q=65.0 size=     616kB time=00:00:06.76 bitrate= 746.4kbits/s speed=0.0123x    frame=  430 fps=0.8 q=65.0 size=     616kB time=00:00:06.80 bitrate= 742.0kbits/s speed=0.0123x    frame=  431 fps=0.8 q=65.0 size=     616kB time=00:00:06.82 bitrate= 739.8kbits/s speed=0.0123x    frame=  432 fps=0.8 q=65.0 size=     616kB time=00:00:06.84 bitrate= 737.6kbits/s speed=0.0123x    frame=  433 fps=0.8 q=65.0 size=     616kB time=00:00:06.86 bitrate= 735.5kbits/s speed=0.0123x    frame=  434 fps=0.8 q=65.0 size=     616kB time=00:00:06.88 bitrate= 733.3kbits/s speed=0.0123x    frame=  436 fps=0.8 q=65.0 size=     616kB time=00:00:06.92 bitrate= 729.1kbits/s speed=0.0122x    frame=  437 fps=0.8 q=65.0 size=     616kB time=00:00:06.94 bitrate= 727.0kbits/s speed=0.0122x    frame=  438 fps=0.8 q=65.0 size=     616kB time=00:00:06.96 bitrate= 724.9kbits/s speed=0.0122x    frame=  440 fps=0.8 q=64.0 size=     616kB time=00:00:07.00 bitrate= 720.8kbits/s speed=0.0122x    frame=  441 fps=0.8 q=64.0 size=     616kB time=00:00:07.02 bitrate= 718.7kbits/s speed=0.0123x    frame=  442 fps=0.8 q=64.0 size=     616kB time=00:00:07.04 bitrate= 716.7kbits/s speed=0.0122x    frame=  443 fps=0.8 q=64.0 size=     616kB time=00:00:07.06 bitrate= 714.6kbits/s speed=0.0122x    frame=  444 fps=0.8 q=64.0 size=     616kB time=00:00:07.08 bitrate= 712.6kbits/s speed=0.0122x    frame=  445 fps=0.8 q=64.0 size=     616kB time=00:00:07.10 bitrate= 710.6kbits/s speed=0.0122x    frame=  446 fps=0.8 q=64.0 size=     616kB time=00:00:07.12 bitrate= 708.6kbits/s speed=0.0122x    frame=  447 fps=0.8 q=64.0 size=     616kB time=00:00:07.14 bitrate= 706.6kbits/s speed=0.0122x    frame=  448 fps=0.8 q=64.0 size=     616kB time=00:00:07.16 bitrate= 704.7kbits/s speed=0.0122x    frame=  449 fps=0.8 q=64.0 size=     616kB time=00:00:07.18 bitrate= 702.7kbits/s speed=0.0122x    frame=  450 fps=0.8 q=64.0 size=     616kB time=00:00:07.20 bitrate= 700.8kbits/s speed=0.0122x    frame=  451 fps=0.8 q=64.0 size=     616kB time=00:00:07.22 bitrate= 698.8kbits/s speed=0.0122x    frame=  452 fps=0.8 q=64.0 size=     616kB time=00:00:07.24 bitrate= 696.9kbits/s speed=0.0122x    frame=  453 fps=0.8 q=64.0 size=     616kB time=00:00:07.26 bitrate= 695.0kbits/s speed=0.0122x    frame=  455 fps=0.8 q=64.0 size=     616kB time=00:00:07.30 bitrate= 691.2kbits/s speed=0.0121x    frame=  456 fps=0.8 q=64.0 size=     616kB time=00:00:07.32 bitrate= 689.3kbits/s speed=0.0121x    frame=  457 fps=0.8 q=64.0 size=     616kB time=00:00:07.34 bitrate= 687.4kbits/s speed=0.0121x    frame=  459 fps=0.8 q=64.0 size=     616kB time=00:00:07.38 bitrate= 683.7kbits/s speed=0.0122x    frame=  460 fps=0.8 q=64.0 size=     616kB time=00:00:07.40 bitrate= 681.8kbits/s speed=0.0122x    frame=  461 fps=0.8 q=64.0 size=     616kB time=00:00:07.42 bitrate= 680.0kbits/s speed=0.0121x    frame=  463 fps=0.8 q=64.0 size=     616kB time=00:00:07.46 bitrate= 676.3kbits/s speed=0.0121x    frame=  465 fps=0.8 q=64.0 size=     616kB time=00:00:07.50 bitrate= 672.7kbits/s speed=0.0121x    frame=  466 fps=0.8 q=64.0 size=     616kB time=00:00:07.52 bitrate= 670.9kbits/s speed=0.0121x    frame=  467 fps=0.8 q=64.0 size=     616kB time=00:00:07.54 bitrate= 669.2kbits/s speed=0.0121x    frame=  468 fps=0.8 q=64.0 size=     616kB time=00:00:07.56 bitrate= 667.4kbits/s speed=0.0121x    frame=  469 fps=0.7 q=64.0 size=     616kB time=00:00:07.58 bitrate= 665.6kbits/s speed=0.0121x    frame=  470 fps=0.7 q=64.0 size=     616kB time=00:00:07.60 bitrate= 663.9kbits/s speed=0.0121x    frame=  471 fps=0.7 q=64.0 size=     616kB time=00:00:07.62 bitrate= 662.1kbits/s speed=0.0121x    frame=  473 fps=0.7 q=64.0 size=     616kB time=00:00:07.66 bitrate= 658.7kbits/s speed=0.0121x    frame=  474 fps=0.7 q=64.0 size=     616kB time=00:00:07.68 bitrate= 657.0kbits/s speed=0.0121x    frame=  475 fps=0.7 q=64.0 size=     616kB time=00:00:07.70 bitrate= 655.3kbits/s speed=0.0121x    frame=  476 fps=0.7 q=64.0 size=     616kB time=00:00:07.72 bitrate= 653.6kbits/s speed=0.0121x    frame=  477 fps=0.7 q=65.0 size=     616kB time=00:00:07.74 bitrate= 651.9kbits/s speed=0.012x    frame=  478 fps=0.7 q=65.0 size=     616kB time=00:00:07.76 bitrate= 650.2kbits/s speed=0.0121x    frame=  479 fps=0.7 q=65.0 size=     616kB time=00:00:07.78 bitrate= 648.5kbits/s speed=0.0121x    frame=  480 fps=0.7 q=65.0 size=     616kB time=00:00:07.80 bitrate= 646.9kbits/s speed=0.0121x    frame=  481 fps=0.7 q=65.0 size=     616kB time=00:00:07.82 bitrate= 645.2kbits/s speed=0.0121x    frame=  482 fps=0.7 q=65.0 size=     616kB time=00:00:07.84 bitrate= 643.6kbits/s speed=0.0121x    frame=  483 fps=0.7 q=65.0 size=     616kB time=00:00:07.86 bitrate= 641.9kbits/s speed=0.012x    frame=  484 fps=0.7 q=65.0 size=     616kB time=00:00:07.88 bitrate= 640.3kbits/s speed=0.012x    frame=  485 fps=0.7 q=65.0 size=     616kB time=00:00:07.90 bitrate= 638.7kbits/s speed=0.012x    frame=  487 fps=0.7 q=65.0 size=     616kB time=00:00:07.94 bitrate= 635.5kbits/s speed=0.0121x    frame=  488 fps=0.7 q=65.0 size=     616kB time=00:00:07.96 bitrate= 633.9kbits/s speed=0.0121x    frame=  489 fps=0.7 q=65.0 size=     616kB time=00:00:07.98 bitrate= 632.3kbits/s speed=0.012x    frame=  490 fps=0.7 q=65.0 size=     616kB time=00:00:08.00 bitrate= 630.7kbits/s speed=0.012x    frame=  491 fps=0.7 q=65.0 size=     616kB time=00:00:08.02 bitrate= 629.1kbits/s speed=0.012x    frame=  492 fps=0.7 q=65.0 size=     616kB time=00:00:08.04 bitrate= 627.5kbits/s speed=0.012x    frame=  494 fps=0.7 q=65.0 size=     616kB time=00:00:08.08 bitrate= 624.4kbits/s speed=0.0121x    frame=  495 fps=0.7 q=65.0 size=     616kB time=00:00:08.10 bitrate= 622.9kbits/s speed=0.0121x    frame=  496 fps=0.7 q=65.0 size=     616kB time=00:00:08.12 bitrate= 621.4kbits/s speed=0.012x    frame=  498 fps=0.7 q=65.0 size=     616kB time=00:00:08.16 bitrate= 618.3kbits/s speed=0.012x    frame=  499 fps=0.7 q=65.0 size=     616kB time=00:00:08.18 bitrate= 616.8kbits/s speed=0.012x    frame=  500 fps=0.7 q=65.0 size=     616kB time=00:00:08.20 bitrate= 615.3kbits/s speed=0.012x    frame=  500 fps=0.6 q=-1.0 Lsize=    1236kB time=00:00:09.94 bitrate=1018.5kbits/s speed=0.012x    
video:1232kB audio:0kB subtitle:0kB other streams:0kB global headers:0kB muxing overhead: 0.342894%
bench: utime=3170.464s
bench: maxrss=4902048kB
[libx264 @ 0x3ce31c0] frame I:2     Avg QP:50.03  size: 41086
[libx264 @ 0x3ce31c0] frame P:108   Avg QP:50.99  size:  8537
[libx264 @ 0x3ce31c0] frame B:390   Avg QP:51.00  size:   658
[libx264 @ 0x3ce31c0] consecutive B-frames:  0.6%  0.4%  3.6% 32.8% 41.0% 21.6%  0.0%  0.0%  0.0%  0.0%  0.0%  0.0%  0.0%  0.0%  0.0%  0.0%  0.0%
[libx264 @ 0x3ce31c0] mb I  I16..4: 31.5% 24.0% 44.5%
[libx264 @ 0x3ce31c0] mb P  I16..4:  1.2%  3.4% 19.6%  P16..4:  1.5%  0.3% 17.7%  0.7%  0.0%    skip:55.6%
[libx264 @ 0x3ce31c0] mb B  I16..4:  0.0%  0.0%  0.0%  B16..8:  2.0%  0.0%  0.0%  direct: 0.0%  skip:97.9%  L0:11.9% L1:88.1% BI: 0.0%
[libx264 @ 0x3ce31c0] final ratefactor: 56.66
[libx264 @ 0x3ce31c0] 8x8 transform intra:14.9% inter:33.9%
[libx264 @ 0x3ce31c0] direct mvs  spatial:99.2% temporal:0.8%
[libx264 @ 0x3ce31c0] coded y,uvDC,uvAC intra: 1.0% 3.9% 0.2% inter: 0.0% 0.6% 0.0%
[libx264 @ 0x3ce31c0] i16 v,h,dc,p: 42%  9%  1% 48%
[libx264 @ 0x3ce31c0] i8 v,h,dc,ddl,ddr,vr,hd,vl,hu:  1%  0% 93%  1%  1%  1%  1%  1%  1%
[libx264 @ 0x3ce31c0] i4 v,h,dc,ddl,ddr,vr,hd,vl,hu:  1%  1% 98%  0%  0%  0%  0%  0%  0%
[libx264 @ 0x3ce31c0] i8c dc,h,v,p: 31% 44% 18%  7%
[libx264 @ 0x3ce31c0] Weighted P-Frames: Y:0.0% UV:0.0%
[libx264 @ 0x3ce31c0] ref P L0: 94.1%  0.0%  1.7%  0.8%  0.4%  0.7%  0.6%  0.3%  0.1%  0.3%  0.1%  0.2%  0.1%  0.2%  0.2%  0.1%
[libx264 @ 0x3ce31c0] ref B L0: 91.6%  4.1%  2.0%  0.5%  0.4%  0.2%  0.4%  0.1%  0.1%  0.1%  0.1%  0.1%  0.2%  0.0%  0.0%
[libx264 @ 0x3ce31c0] ref B L1: 87.0% 13.0%
[libx264 @ 0x3ce31c0] kb/s:1008.50
